<svg xmlns="http://www.w3.org/2000/svg" xmlns:xlink="http://www.w3.org/1999/xlink" width="48" zoomAndPan="magnify" viewBox="0 0 36 43.92" height="48" preserveAspectRatio="xMidYMid meet" version="1.0"><defs><clipPath id="d7cd9940ca"><path d="M 4.300781 0 L 32 0 L 32 35.933594 L 4.300781 35.933594 Z M 4.300781 0 " clip-rule="nonzero"/></clipPath></defs><g clip-path="url(#d7cd9940ca)"><path fill="#8ba48f" d="M 14.515625 27.082031 L 15.488281 25.21875 C 15.628906 24.949219 15.835938 24.765625 16.070312 24.664062 C 16.273438 24.570312 16.496094 24.542969 16.703125 24.574219 C 16.921875 24.605469 17.128906 24.703125 17.296875 24.859375 C 17.480469 25.027344 17.609375 25.261719 17.65625 25.546875 L 18.125 28.628906 C 18.144531 28.75 18.167969 28.859375 18.207031 28.957031 C 18.242188 29.050781 18.289062 29.136719 18.351562 29.222656 L 21.40625 33.480469 C 21.417969 33.496094 21.433594 33.511719 21.445312 33.527344 C 21.59375 33.710938 21.808594 33.816406 22.035156 33.839844 C 22.273438 33.863281 22.523438 33.800781 22.734375 33.652344 C 22.75 33.640625 22.769531 33.625 22.789062 33.609375 L 22.863281 33.546875 C 23.0625 33.382812 23.183594 33.152344 23.210938 32.914062 C 23.242188 32.671875 23.183594 32.417969 23.027344 32.207031 L 20.667969 29.003906 C 20.535156 28.820312 20.433594 28.628906 20.363281 28.429688 C 20.292969 28.230469 20.257812 28.019531 20.253906 27.785156 L 19.921875 15.664062 C 19.917969 15.484375 19.953125 15.320312 20.019531 15.171875 C 20.105469 14.972656 20.25 14.804688 20.429688 14.6875 C 20.601562 14.570312 20.8125 14.5 21.035156 14.496094 C 21.199219 14.492188 21.363281 14.519531 21.523438 14.589844 L 23.207031 15.335938 L 28.503906 11.6875 C 28.707031 11.546875 28.84375 11.34375 28.898438 11.121094 C 28.957031 10.898438 28.933594 10.652344 28.820312 10.433594 C 28.734375 10.265625 28.644531 10.132812 28.535156 10.035156 C 28.433594 9.949219 28.3125 9.886719 28.152344 9.84375 C 28.007812 9.808594 27.871094 9.800781 27.738281 9.820312 C 27.609375 9.84375 27.480469 9.894531 27.359375 9.976562 L 23.210938 12.730469 C 22.992188 12.875 22.71875 12.882812 22.496094 12.773438 L 18.914062 10.984375 C 18.71875 10.886719 18.539062 10.808594 18.382812 10.757812 C 18.234375 10.714844 18.082031 10.6875 17.90625 10.6875 L 16.371094 10.6875 C 16.140625 10.6875 15.929688 10.730469 15.738281 10.808594 C 15.527344 10.894531 15.320312 11.023438 15.109375 11.1875 L 11.996094 13.570312 C 11.855469 13.675781 11.691406 13.726562 11.527344 13.714844 L 6.78125 13.75 C 6.515625 13.753906 6.273438 13.863281 6.097656 14.042969 C 5.921875 14.21875 5.8125 14.464844 5.8125 14.734375 L 5.8125 14.78125 C 5.8125 15.050781 5.925781 15.296875 6.101562 15.472656 C 6.28125 15.652344 6.523438 15.761719 6.792969 15.761719 L 11.9375 15.761719 L 12.640625 15.367188 C 12.839844 15.253906 13.050781 15.207031 13.257812 15.21875 C 13.453125 15.226562 13.636719 15.285156 13.796875 15.382812 C 13.960938 15.484375 14.097656 15.625 14.195312 15.792969 C 14.296875 15.972656 14.351562 16.183594 14.339844 16.410156 L 14.117188 20.957031 C 14.117188 21.023438 14.101562 21.085938 14.082031 21.144531 L 14.085938 21.144531 L 11.964844 27.550781 C 11.9375 27.628906 11.925781 27.691406 11.921875 27.75 C 11.921875 27.808594 11.929688 27.875 11.949219 27.953125 L 13.378906 33.675781 C 13.386719 33.703125 13.394531 33.730469 13.398438 33.75 C 13.488281 34.019531 13.667969 34.230469 13.894531 34.355469 C 14.121094 34.480469 14.394531 34.519531 14.667969 34.453125 C 14.695312 34.445312 14.71875 34.4375 14.742188 34.429688 L 14.886719 34.382812 C 15.15625 34.296875 15.371094 34.109375 15.496094 33.878906 C 15.621094 33.648438 15.660156 33.371094 15.585938 33.09375 L 14.394531 28.648438 C 14.328125 28.40625 14.300781 28.171875 14.3125 27.933594 C 14.320312 27.6875 14.367188 27.453125 14.449219 27.21875 C 14.464844 27.171875 14.488281 27.125 14.515625 27.082031 Z M 8.652344 8.96875 C 8.652344 9.039062 8.644531 9.105469 8.625 9.167969 C 8.605469 9.394531 8.554688 9.617188 8.46875 9.832031 C 8.171875 10.570312 7.507812 11.148438 6.476562 11.148438 C 5.875 11.148438 5.328125 10.902344 4.933594 10.507812 C 4.539062 10.113281 4.296875 9.570312 4.296875 8.96875 C 4.296875 8.367188 4.539062 7.824219 4.933594 7.429688 C 5.328125 7.035156 5.875 6.789062 6.476562 6.789062 C 6.746094 6.789062 6.996094 6.832031 7.21875 6.902344 L 7.21875 3.804688 C 7.21875 3.410156 7.539062 3.085938 7.933594 3.085938 C 7.960938 3.085938 7.984375 3.089844 8.007812 3.089844 C 8.386719 3.09375 8.71875 3.03125 9.003906 2.902344 C 9.28125 2.777344 9.527344 2.582031 9.738281 2.3125 C 9.980469 2 10.433594 1.941406 10.746094 2.1875 C 11.058594 2.429688 11.113281 2.878906 10.871094 3.191406 C 10.519531 3.644531 10.089844 3.984375 9.578125 4.210938 C 9.292969 4.339844 8.984375 4.425781 8.652344 4.476562 Z M 7.136719 8.636719 C 7.046875 8.40625 6.824219 8.226562 6.476562 8.226562 C 6.269531 8.226562 6.085938 8.308594 5.949219 8.445312 C 5.816406 8.578125 5.734375 8.765625 5.734375 8.96875 C 5.734375 9.175781 5.816406 9.359375 5.949219 9.492188 C 6.085938 9.628906 6.269531 9.710938 6.476562 9.710938 C 6.824219 9.710938 7.046875 9.53125 7.136719 9.300781 C 7.175781 9.199219 7.199219 9.085938 7.199219 8.96875 C 7.199219 8.851562 7.175781 8.738281 7.136719 8.636719 Z M 27.570312 23.382812 L 27.570312 19.707031 C 27.570312 19.3125 27.890625 18.992188 28.285156 18.992188 C 28.3125 18.992188 28.335938 18.992188 28.359375 18.992188 C 28.808594 18.996094 29.199219 18.921875 29.535156 18.773438 C 29.871094 18.625 30.160156 18.390625 30.40625 18.074219 C 30.652344 17.761719 31.101562 17.703125 31.414062 17.949219 C 31.726562 18.191406 31.785156 18.640625 31.539062 18.953125 C 31.152344 19.457031 30.675781 19.832031 30.113281 20.082031 C 29.769531 20.234375 29.402344 20.335938 29.003906 20.386719 L 29.003906 25.566406 C 29.003906 26.21875 28.738281 26.8125 28.308594 27.242188 C 27.878906 27.671875 27.285156 27.9375 26.628906 27.9375 C 25.976562 27.9375 25.382812 27.671875 24.953125 27.242188 C 24.523438 26.8125 24.257812 26.21875 24.257812 25.566406 C 24.257812 24.910156 24.523438 24.316406 24.953125 23.886719 C 25.382812 23.457031 25.976562 23.191406 26.628906 23.191406 C 26.964844 23.191406 27.28125 23.257812 27.570312 23.382812 Z M 27.292969 24.902344 C 27.464844 25.070312 27.570312 25.304688 27.570312 25.566406 C 27.570312 25.824219 27.464844 26.058594 27.292969 26.226562 C 27.125 26.398438 26.890625 26.503906 26.628906 26.503906 C 26.371094 26.503906 26.136719 26.398438 25.96875 26.226562 C 25.796875 26.058594 25.691406 25.824219 25.691406 25.566406 C 25.691406 25.304688 25.796875 25.070312 25.96875 24.902344 C 26.136719 24.730469 26.371094 24.625 26.628906 24.625 C 26.890625 24.625 27.125 24.730469 27.292969 24.902344 Z M 17.136719 0.015625 C 18.351562 0.015625 19.453125 0.507812 20.246094 1.304688 C 21.042969 2.097656 21.535156 3.199219 21.535156 4.410156 C 21.535156 5.625 21.042969 6.726562 20.246094 7.519531 C 19.453125 8.316406 18.351562 8.808594 17.136719 8.808594 C 15.925781 8.808594 14.824219 8.316406 14.03125 7.519531 C 13.234375 6.726562 12.742188 5.625 12.742188 4.410156 C 12.742188 3.199219 13.234375 2.097656 14.03125 1.304688 C 14.824219 0.507812 15.925781 0.015625 17.136719 0.015625 Z M 19.230469 2.320312 C 18.695312 1.78125 17.957031 1.453125 17.136719 1.453125 C 16.320312 1.453125 15.582031 1.78125 15.042969 2.320312 C 14.507812 2.855469 14.179688 3.59375 14.179688 4.410156 C 14.179688 5.230469 14.507812 5.96875 15.042969 6.503906 C 15.582031 7.042969 16.320312 7.371094 17.136719 7.371094 C 17.957031 7.371094 18.695312 7.039062 19.230469 6.503906 C 19.765625 5.96875 20.097656 5.230469 20.097656 4.410156 C 20.097656 3.59375 19.765625 2.855469 19.230469 2.320312 Z M 16.367188 26.625 L 15.789062 27.730469 C 15.761719 27.820312 15.746094 27.902344 15.742188 27.980469 C 15.738281 28.074219 15.75 28.171875 15.78125 28.277344 L 16.972656 32.726562 C 17.144531 33.367188 17.046875 34.019531 16.75 34.5625 C 16.457031 35.109375 15.960938 35.542969 15.328125 35.746094 L 15.183594 35.796875 C 15.125 35.8125 15.066406 35.832031 15.015625 35.84375 C 14.378906 36.003906 13.734375 35.902344 13.199219 35.605469 C 12.664062 35.308594 12.238281 34.820312 12.035156 34.195312 C 12.015625 34.136719 12 34.078125 11.988281 34.023438 L 10.554688 28.300781 C 10.507812 28.097656 10.484375 27.902344 10.492188 27.699219 C 10.5 27.492188 10.535156 27.296875 10.601562 27.101562 L 12.691406 20.785156 L 12.882812 16.871094 L 12.523438 17.074219 C 12.410156 17.152344 12.273438 17.199219 12.125 17.199219 L 6.792969 17.199219 C 6.128906 17.199219 5.523438 16.925781 5.085938 16.488281 C 4.648438 16.050781 4.378906 15.449219 4.378906 14.78125 L 4.378906 14.734375 C 4.378906 14.074219 4.648438 13.472656 5.082031 13.035156 C 5.511719 12.597656 6.109375 12.324219 6.773438 12.320312 L 11.3125 12.289062 L 14.238281 10.046875 C 14.542969 9.8125 14.859375 9.621094 15.203125 9.480469 C 15.566406 9.335938 15.949219 9.25 16.371094 9.25 L 17.90625 9.25 C 18.21875 9.25 18.511719 9.304688 18.796875 9.390625 C 19.066406 9.472656 19.308594 9.578125 19.550781 9.699219 L 22.765625 11.304688 L 26.566406 8.78125 C 26.859375 8.585938 27.175781 8.460938 27.503906 8.40625 C 27.832031 8.351562 28.167969 8.371094 28.507812 8.457031 C 28.90625 8.5625 29.21875 8.730469 29.480469 8.960938 C 29.730469 9.179688 29.925781 9.453125 30.09375 9.78125 C 30.371094 10.324219 30.425781 10.921875 30.289062 11.46875 C 30.152344 12.019531 29.820312 12.519531 29.316406 12.867188 L 23.722656 16.71875 C 23.523438 16.875 23.242188 16.917969 22.992188 16.808594 L 21.367188 16.089844 L 21.683594 27.75 C 21.683594 27.824219 21.695312 27.894531 21.71875 27.964844 C 21.742188 28.03125 21.777344 28.09375 21.824219 28.15625 L 24.183594 31.359375 C 24.566406 31.875 24.710938 32.496094 24.636719 33.085938 C 24.5625 33.679688 24.269531 34.242188 23.773438 34.652344 L 23.699219 34.714844 C 23.65625 34.75 23.613281 34.785156 23.570312 34.816406 C 23.066406 35.175781 22.464844 35.324219 21.890625 35.265625 C 21.300781 35.203125 20.742188 34.925781 20.339844 34.4375 C 20.308594 34.398438 20.277344 34.359375 20.246094 34.316406 L 17.1875 30.058594 C 17.046875 29.863281 16.941406 29.667969 16.867188 29.464844 C 16.789062 29.265625 16.738281 29.0625 16.707031 28.84375 Z M 16.367188 26.625 " fill-opacity="1" fill-rule="evenodd"/></g></svg>