<svg xmlns="http://www.w3.org/2000/svg" xmlns:xlink="http://www.w3.org/1999/xlink" width="48" zoomAndPan="magnify" viewBox="0 0 36 43.92" height="48" preserveAspectRatio="xMidYMid meet" version="1.0"><defs><clipPath id="433ed351a1"><path d="M 0.03125 2.738281 L 35.964844 2.738281 L 35.964844 33.433594 L 0.03125 33.433594 Z M 0.03125 2.738281 " clip-rule="nonzero"/></clipPath></defs><g clip-path="url(#433ed351a1)"><path fill="#8ba48f" d="M 10.59375 2.738281 C 7.328125 2.738281 4.660156 3.675781 2.832031 5.503906 C 1 7.335938 0.0664062 10.007812 0.0664062 13.265625 C 0.0664062 15.632812 1.230469 17.992188 2.894531 20.246094 C 4.554688 22.503906 6.738281 24.660156 8.910156 26.546875 C 13.253906 30.320312 17.585938 33.027344 17.585938 33.027344 C 17.863281 33.199219 18.136719 33.199219 18.414062 33.027344 C 18.414062 33.027344 22.746094 30.320312 27.089844 26.546875 C 29.261719 24.660156 31.445312 22.503906 33.105469 20.246094 C 34.769531 17.992188 35.933594 15.632812 35.933594 13.265625 C 35.933594 10.007812 35 7.335938 33.167969 5.503906 C 31.339844 3.675781 28.671875 2.738281 25.40625 2.738281 C 21.753906 2.738281 19.257812 4.894531 18 6.261719 C 16.742188 4.894531 14.246094 2.738281 10.59375 2.738281 Z M 10.59375 4.300781 C 14.113281 4.300781 16.578125 6.902344 17.390625 7.90625 C 17.464844 8 17.554688 8.070312 17.660156 8.121094 C 17.769531 8.171875 17.882812 8.199219 18 8.199219 C 18.117188 8.199219 18.230469 8.171875 18.339844 8.121094 C 18.445312 8.070312 18.535156 8 18.609375 7.90625 C 19.421875 6.902344 21.886719 4.300781 25.40625 4.300781 C 28.375 4.300781 30.585938 5.117188 32.070312 6.601562 C 33.558594 8.089844 34.375 10.300781 34.375 13.265625 C 34.375 15.101562 33.394531 17.222656 31.839844 19.332031 C 30.285156 21.445312 28.183594 23.539062 26.066406 25.375 C 22.164062 28.765625 18.589844 31.046875 18 31.417969 C 17.410156 31.046875 13.835938 28.765625 9.933594 25.375 C 7.816406 23.539062 5.714844 21.445312 4.160156 19.332031 C 2.605469 17.222656 1.625 15.101562 1.625 13.265625 C 1.625 10.300781 2.441406 8.089844 3.929688 6.601562 C 5.414062 5.117188 7.625 4.300781 10.59375 4.300781 Z M 15.976562 10.925781 C 15.777344 10.945312 15.609375 11.03125 15.472656 11.179688 C 15.335938 11.328125 15.269531 11.503906 15.269531 11.707031 L 15.269531 14.824219 L 12.152344 14.824219 C 11.9375 14.824219 11.753906 14.902344 11.601562 15.054688 C 11.449219 15.207031 11.371094 15.390625 11.371094 15.605469 L 11.371094 19.503906 C 11.371094 19.71875 11.449219 19.902344 11.601562 20.054688 C 11.753906 20.207031 11.9375 20.285156 12.152344 20.285156 L 15.269531 20.285156 L 15.269531 23.402344 C 15.269531 23.617188 15.347656 23.800781 15.5 23.953125 C 15.652344 24.105469 15.835938 24.183594 16.050781 24.183594 L 19.949219 24.183594 C 20.164062 24.183594 20.347656 24.105469 20.5 23.953125 C 20.652344 23.800781 20.730469 23.617188 20.730469 23.402344 L 20.730469 20.285156 L 23.847656 20.285156 C 24.0625 20.285156 24.246094 20.207031 24.398438 20.054688 C 24.550781 19.902344 24.628906 19.71875 24.628906 19.503906 L 24.628906 15.605469 C 24.628906 15.390625 24.550781 15.207031 24.398438 15.054688 C 24.246094 14.902344 24.0625 14.824219 23.847656 14.824219 L 20.730469 14.824219 L 20.730469 11.707031 C 20.730469 11.492188 20.652344 11.308594 20.5 11.15625 C 20.347656 11.003906 20.164062 10.925781 19.949219 10.925781 L 16.050781 10.925781 C 16.027344 10.925781 16 10.925781 15.976562 10.925781 Z M 16.832031 12.488281 L 19.167969 12.488281 L 19.167969 15.605469 C 19.167969 15.820312 19.246094 16.003906 19.398438 16.15625 C 19.550781 16.308594 19.734375 16.386719 19.949219 16.386719 L 23.066406 16.386719 L 23.066406 18.722656 L 19.949219 18.722656 C 19.734375 18.722656 19.550781 18.800781 19.398438 18.953125 C 19.246094 19.105469 19.167969 19.289062 19.167969 19.503906 L 19.167969 22.625 L 16.832031 22.625 L 16.832031 19.503906 C 16.832031 19.289062 16.753906 19.105469 16.601562 18.953125 C 16.449219 18.800781 16.265625 18.722656 16.050781 18.722656 L 12.933594 18.722656 L 12.933594 16.386719 L 16.050781 16.386719 C 16.265625 16.386719 16.449219 16.308594 16.601562 16.15625 C 16.753906 16.003906 16.832031 15.820312 16.832031 15.605469 Z M 16.832031 12.488281 " fill-opacity="1" fill-rule="nonzero"/></g></svg>