<svg xmlns="http://www.w3.org/2000/svg" xmlns:xlink="http://www.w3.org/1999/xlink" width="48" zoomAndPan="magnify" viewBox="0 0 36 43.92" height="48" preserveAspectRatio="xMidYMid meet" version="1.0"><defs><clipPath id="ed25dfb056"><path d="M 0.03125 2.628906 L 35.964844 2.628906 L 35.964844 33.320312 L 0.03125 33.320312 Z M 0.03125 2.628906 " clip-rule="nonzero"/></clipPath></defs><g clip-path="url(#ed25dfb056)"><path fill="#8ba48f" d="M 18 33.289062 C 17.90625 33.289062 17.820312 33.265625 17.738281 33.222656 C 17.691406 33.199219 13.28125 30.847656 8.933594 27.167969 C 6.367188 24.996094 4.320312 22.789062 2.847656 20.613281 C 0.980469 17.847656 0.03125 15.117188 0.03125 12.484375 C 0.03125 7.054688 4.449219 2.640625 9.878906 2.640625 C 10.679688 2.640625 11.46875 2.734375 12.242188 2.929688 C 13.019531 3.121094 13.761719 3.402344 14.46875 3.777344 C 15.175781 4.148438 15.828125 4.601562 16.425781 5.132812 C 17.023438 5.664062 17.550781 6.257812 18 6.917969 C 18.453125 6.257812 18.980469 5.664062 19.574219 5.132812 C 20.171875 4.597656 20.824219 4.148438 21.53125 3.773438 C 22.242188 3.402344 22.984375 3.117188 23.757812 2.925781 C 24.535156 2.734375 25.324219 2.636719 26.125 2.636719 C 31.554688 2.636719 35.96875 7.054688 35.96875 12.480469 C 35.96875 15.183594 35.023438 17.960938 33.15625 20.75 C 31.679688 22.941406 29.632812 25.144531 27.066406 27.292969 C 22.714844 30.929688 18.304688 33.203125 18.257812 33.226562 C 18.175781 33.265625 18.09375 33.289062 18 33.289062 Z M 9.878906 3.761719 C 9.308594 3.761719 8.742188 3.820312 8.179688 3.933594 C 7.617188 4.042969 7.074219 4.210938 6.542969 4.429688 C 6.015625 4.648438 5.515625 4.917969 5.039062 5.234375 C 4.5625 5.554688 4.121094 5.914062 3.71875 6.320312 C 3.3125 6.722656 2.953125 7.164062 2.632812 7.640625 C 2.316406 8.117188 2.046875 8.617188 1.828125 9.148438 C 1.609375 9.675781 1.441406 10.21875 1.332031 10.78125 C 1.21875 11.34375 1.164062 11.910156 1.164062 12.480469 C 1.164062 17.953125 5.777344 23.011719 9.648438 26.292969 C 13.304688 29.390625 17.007812 31.527344 18.011719 32.082031 C 19.007812 31.542969 22.707031 29.46875 26.359375 26.410156 C 30.230469 23.167969 34.84375 18.117188 34.84375 12.480469 C 34.84375 12.003906 34.804688 11.527344 34.726562 11.050781 C 34.648438 10.578125 34.53125 10.113281 34.375 9.660156 C 34.21875 9.207031 34.027344 8.769531 33.800781 8.347656 C 33.574219 7.921875 33.3125 7.523438 33.019531 7.144531 C 32.726562 6.765625 32.402344 6.410156 32.050781 6.085938 C 31.699219 5.757812 31.320312 5.464844 30.921875 5.199219 C 30.519531 4.9375 30.101562 4.707031 29.660156 4.511719 C 29.222656 4.316406 28.769531 4.160156 28.304688 4.042969 C 27.839844 3.921875 27.371094 3.839844 26.890625 3.796875 C 26.414062 3.757812 25.9375 3.753906 25.457031 3.789062 C 24.980469 3.828125 24.507812 3.902344 24.039062 4.019531 C 23.574219 4.132812 23.121094 4.285156 22.679688 4.476562 C 22.238281 4.664062 21.816406 4.890625 21.414062 5.148438 C 21.011719 5.410156 20.632812 5.699219 20.277344 6.023438 C 19.917969 6.34375 19.59375 6.695312 19.296875 7.070312 C 18.996094 7.445312 18.730469 7.84375 18.5 8.265625 C 18.394531 8.457031 18.226562 8.554688 18.007812 8.554688 C 17.785156 8.554688 17.621094 8.457031 17.511719 8.265625 C 17.132812 7.582031 16.675781 6.964844 16.128906 6.40625 C 15.585938 5.847656 14.980469 5.371094 14.308594 4.972656 C 13.636719 4.578125 12.925781 4.277344 12.175781 4.074219 C 11.425781 3.867188 10.660156 3.765625 9.878906 3.765625 Z M 9.878906 3.761719 " fill-opacity="1" fill-rule="nonzero"/></g></svg>